<svg width="561" height="405" viewBox="0 0 561 405" fill="none" xmlns="http://www.w3.org/2000/svg">
<g clip-path="url(#clip0_1_27)">
<path d="M560.189 401.894H0.810694C0.595684 401.894 0.389481 401.809 0.237446 401.657C0.0854115 401.505 0 401.299 0 401.084C0 400.869 0.0854115 400.663 0.237446 400.511C0.389481 400.359 0.595684 400.274 0.810694 400.274H560.189C560.404 400.274 560.61 400.359 560.763 400.511C560.915 400.663 561 400.869 561 401.084C561 401.299 560.915 401.505 560.763 401.657C560.61 401.809 560.404 401.894 560.189 401.894Z" fill="#CCCCCC"/>
<path d="M504.822 260.594H175.681C174.283 260.594 172.943 261.149 171.955 262.136C170.967 263.124 170.411 264.463 170.411 265.86C170.411 267.257 170.967 268.596 171.955 269.584C172.943 270.572 174.283 271.126 175.681 271.126H185.004V397.112C185.004 398.509 185.559 399.849 186.547 400.836C187.535 401.824 188.876 402.379 190.273 402.379C191.671 402.379 193.011 401.824 193.999 400.836C194.988 399.849 195.543 398.509 195.543 397.112L195.623 271.126H484.15V397.112C484.15 398.509 484.705 399.849 485.693 400.836C486.681 401.824 488.022 402.379 489.419 402.379C490.817 402.379 492.157 401.824 493.145 400.836C494.134 399.849 494.689 398.509 494.689 397.112V273.903L496.222 271.126H504.822C506.22 271.126 507.56 270.572 508.549 269.584C509.537 268.596 510.092 267.257 510.092 265.86C510.092 264.463 509.537 263.124 508.549 262.136C507.56 261.149 506.22 260.594 504.822 260.594Z" fill="#CCCCCC"/>
<path d="M358.16 263.35H258.459C256.529 263.348 254.678 262.58 253.313 261.216C251.948 259.852 251.18 258.002 251.178 256.073V201.215C251.18 199.286 251.948 197.436 253.313 196.072C254.678 194.707 256.529 193.94 258.459 193.938H358.16C360.09 193.94 361.941 194.707 363.306 196.072C364.671 197.436 365.439 199.286 365.441 201.215V256.073C365.439 258.002 364.671 259.852 363.306 261.216C361.941 262.58 360.09 263.348 358.16 263.35Z" fill="#3F3D56"/>
<path d="M358.159 199.539H258.46C258.015 199.539 257.589 199.716 257.274 200.031C256.96 200.345 256.783 200.771 256.782 201.216V256.074C256.783 256.519 256.96 256.945 257.274 257.259C257.589 257.573 258.015 257.75 258.46 257.751H358.159C358.604 257.75 359.03 257.573 359.345 257.259C359.659 256.945 359.836 256.519 359.837 256.074V201.216C359.836 200.771 359.659 200.345 359.345 200.031C359.03 199.716 358.604 199.539 358.159 199.539Z" fill="white"/>
<path d="M316.813 238.378C316.813 238.378 304.877 235.629 298.313 240.668C291.749 245.707 306.668 257.16 306.668 257.16L316.813 238.378Z" fill="#2F2E41"/>
<path d="M308.894 233.185C315.112 233.185 320.152 228.147 320.152 221.933C320.152 215.719 315.112 210.682 308.894 210.682C302.676 210.682 297.636 215.719 297.636 221.933C297.636 228.147 302.676 233.185 308.894 233.185Z" fill="#A0616A"/>
<path d="M300.188 206.139C300.939 204.866 302.027 203.824 303.333 203.13C304.639 202.436 306.111 202.116 307.587 202.205C309.131 202.399 310.638 202.82 312.058 203.456L319.418 206.325C321.322 207.068 323.408 207.977 324.235 209.845C325.002 211.58 324.429 213.583 323.85 215.388L321.097 223.971C320.792 222.028 320.268 220.127 319.536 218.301C318.792 216.464 317.448 214.932 315.722 213.956C313.811 212.975 311.557 212.996 309.411 213.099C306.372 213.245 303.067 213.632 300.908 215.774C299.761 216.991 298.984 218.508 298.667 220.149C298.354 221.781 298.197 223.439 298.197 225.1C296.95 222.959 295.9 220.71 295.06 218.379C294.368 216.644 293.974 214.805 293.894 212.939C293.822 211.057 294.447 209.215 295.649 207.764C296.259 207.056 297.056 206.531 297.948 206.251C298.84 205.97 299.794 205.944 300.7 206.175L300.188 206.139Z" fill="#2F2E41"/>
<path d="M335.776 248.134C335.67 247.754 335.454 247.414 335.156 247.156C334.857 246.898 334.489 246.734 334.098 246.684C334.072 246.666 334.044 246.65 334.016 246.635L317.21 237.222C316.73 236.954 316.165 236.88 315.632 237.017C315.099 237.154 314.64 237.491 314.349 237.958L309.753 245.396L302.829 238.477L302.719 238.367C302.364 238.012 301.895 237.793 301.394 237.749C300.894 237.706 300.394 237.839 299.982 238.127L286.169 247.794C286.145 247.794 286.121 247.802 286.096 247.802C285.435 247.912 284.832 248.244 284.385 248.744C283.938 249.243 283.675 249.88 283.64 250.549L283.283 257.751H338.443L335.776 248.134Z" fill="#6C63FF"/>
<path d="M366.561 256.633H355.919C355.919 256.336 355.801 256.051 355.591 255.841C355.381 255.631 355.096 255.513 354.799 255.513H351.438C351.141 255.513 350.856 255.631 350.646 255.841C350.436 256.051 350.318 256.336 350.318 256.633H346.957C346.957 256.336 346.839 256.051 346.629 255.841C346.419 255.631 346.134 255.513 345.837 255.513H342.476C342.179 255.513 341.894 255.631 341.684 255.841C341.474 256.051 341.356 256.336 341.356 256.633H337.995C337.995 256.336 337.877 256.051 337.667 255.841C337.457 255.631 337.172 255.513 336.875 255.513H333.514C333.217 255.513 332.932 255.631 332.722 255.841C332.512 256.051 332.394 256.336 332.394 256.633H329.034C329.034 256.336 328.916 256.051 328.705 255.841C328.495 255.631 328.21 255.513 327.913 255.513H324.553C324.256 255.513 323.971 255.631 323.761 255.841C323.55 256.051 323.432 256.336 323.432 256.633H320.072C320.072 256.336 319.954 256.051 319.744 255.841C319.534 255.631 319.249 255.513 318.951 255.513H315.591C315.294 255.513 315.009 255.631 314.799 255.841C314.589 256.051 314.471 256.336 314.471 256.633H311.11C311.11 256.336 310.992 256.051 310.782 255.841C310.572 255.631 310.287 255.513 309.99 255.513H306.629C306.332 255.513 306.047 255.631 305.837 255.841C305.627 256.051 305.509 256.336 305.509 256.633H302.148C302.148 256.336 302.03 256.051 301.82 255.841C301.61 255.631 301.325 255.513 301.028 255.513H297.667C297.37 255.513 297.085 255.631 296.875 255.841C296.665 256.051 296.547 256.336 296.547 256.633H293.186C293.186 256.336 293.068 256.051 292.858 255.841C292.648 255.631 292.363 255.513 292.066 255.513H288.705C288.408 255.513 288.123 255.631 287.913 255.841C287.703 256.051 287.585 256.336 287.585 256.633H284.224C284.224 256.336 284.106 256.051 283.896 255.841C283.686 255.631 283.401 255.513 283.104 255.513H279.743C279.446 255.513 279.161 255.631 278.951 255.841C278.741 256.051 278.623 256.336 278.623 256.633H275.262C275.262 256.336 275.144 256.051 274.934 255.841C274.724 255.631 274.439 255.513 274.142 255.513H270.782C270.484 255.513 270.2 255.631 269.989 255.841C269.779 256.051 269.661 256.336 269.661 256.633H266.301C266.301 256.336 266.183 256.051 265.973 255.841C265.762 255.631 265.478 255.513 265.18 255.513H261.82C261.523 255.513 261.238 255.631 261.028 255.841C260.817 256.051 260.699 256.336 260.699 256.633H250.057C249.167 256.634 248.313 256.988 247.684 257.618C247.055 258.248 246.702 259.101 246.702 259.991C246.702 260.881 247.055 261.735 247.684 262.364C248.313 262.994 249.167 263.348 250.057 263.35H366.561C367.453 263.35 368.307 262.996 368.938 262.366C369.568 261.736 369.922 260.882 369.922 259.991C369.922 259.1 369.568 258.246 368.938 257.616C368.307 256.986 367.453 256.633 366.561 256.633Z" fill="#3F3D56"/>
<path d="M232.733 237.128V259.429H176.826C175.328 259.481 173.835 259.231 172.436 258.695C171.037 258.158 169.76 257.345 168.682 256.304C167.604 255.263 166.746 254.017 166.161 252.638C165.575 251.259 165.273 249.776 165.273 248.279C165.273 246.781 165.575 245.298 166.161 243.919C166.746 242.54 167.604 241.294 168.682 240.253C169.76 239.212 171.037 238.399 172.436 237.863C173.835 237.326 175.328 237.076 176.826 237.128H232.733Z" fill="#F2F2F2"/>
<path d="M234.106 259.258C234.106 259.485 234.016 259.703 233.855 259.864C233.694 260.025 233.476 260.115 233.248 260.115H175.83C172.712 260.115 169.721 258.877 167.516 256.674C165.311 254.47 164.072 251.481 164.072 248.364C164.072 245.248 165.311 242.259 167.516 240.055C169.721 237.851 172.712 236.613 175.83 236.613H233.248C233.476 236.613 233.694 236.704 233.855 236.865C234.016 237.025 234.106 237.244 234.106 237.471C234.106 237.699 234.016 237.917 233.855 238.078C233.694 238.238 233.476 238.329 233.248 238.329H175.83C173.168 238.331 170.617 239.39 168.735 241.271C166.854 243.153 165.797 245.704 165.797 248.364C165.797 251.024 166.854 253.576 168.735 255.457C170.617 257.339 173.168 258.398 175.83 258.4H233.248C233.476 258.4 233.694 258.49 233.855 258.651C234.016 258.812 234.106 259.03 234.106 259.258Z" fill="#6C63FF"/>
<path d="M232.733 242.274H172.655C172.632 242.274 172.609 242.27 172.588 242.262C172.568 242.253 172.548 242.24 172.532 242.224C172.516 242.209 172.504 242.19 172.495 242.169C172.486 242.148 172.482 242.125 172.482 242.103C172.482 242.08 172.486 242.058 172.495 242.037C172.504 242.016 172.516 241.997 172.532 241.981C172.548 241.965 172.568 241.953 172.588 241.944C172.609 241.935 172.632 241.931 172.655 241.931H232.733C232.778 241.932 232.822 241.95 232.854 241.982C232.886 242.014 232.904 242.057 232.904 242.103C232.904 242.148 232.886 242.192 232.854 242.224C232.822 242.256 232.778 242.274 232.733 242.274Z" fill="#CCCCCC"/>
<path d="M232.733 246.392H172.655C172.632 246.392 172.609 246.387 172.588 246.379C172.568 246.37 172.548 246.358 172.532 246.342C172.516 246.326 172.504 246.307 172.495 246.286C172.486 246.265 172.482 246.243 172.482 246.22C172.482 246.197 172.486 246.175 172.495 246.154C172.504 246.133 172.516 246.114 172.532 246.098C172.548 246.082 172.568 246.07 172.588 246.061C172.609 246.053 172.632 246.048 172.655 246.048H232.733C232.778 246.049 232.822 246.067 232.854 246.099C232.886 246.131 232.904 246.175 232.904 246.22C232.904 246.265 232.886 246.309 232.854 246.341C232.822 246.373 232.778 246.391 232.733 246.392Z" fill="#CCCCCC"/>
<path d="M232.733 250.509H172.655C172.632 250.509 172.609 250.505 172.588 250.496C172.568 250.487 172.548 250.475 172.532 250.459C172.516 250.443 172.504 250.424 172.495 250.403C172.486 250.382 172.482 250.36 172.482 250.337C172.482 250.315 172.486 250.292 172.495 250.271C172.504 250.25 172.516 250.231 172.532 250.215C172.548 250.199 172.568 250.187 172.588 250.178C172.609 250.17 172.632 250.165 172.655 250.166H232.733C232.778 250.166 232.822 250.184 232.854 250.216C232.886 250.248 232.904 250.292 232.904 250.337C232.904 250.382 232.886 250.426 232.854 250.458C232.822 250.49 232.778 250.508 232.733 250.509Z" fill="#CCCCCC"/>
<path d="M232.733 254.626H172.655C172.632 254.626 172.609 254.622 172.588 254.613C172.568 254.605 172.548 254.592 172.532 254.576C172.516 254.56 172.504 254.541 172.495 254.52C172.486 254.499 172.482 254.477 172.482 254.454C172.482 254.432 172.486 254.409 172.495 254.388C172.504 254.367 172.516 254.349 172.532 254.333C172.548 254.317 172.568 254.304 172.588 254.295C172.609 254.287 172.632 254.283 172.655 254.283H232.733C232.778 254.283 232.822 254.301 232.854 254.333C232.886 254.366 232.904 254.409 232.904 254.454C232.904 254.5 232.886 254.543 232.854 254.575C232.822 254.607 232.778 254.625 232.733 254.626Z" fill="#CCCCCC"/>
<path d="M222.194 213.632V235.933H166.287C164.789 235.985 163.296 235.736 161.897 235.199C160.498 234.662 159.221 233.849 158.143 232.808C157.065 231.768 156.207 230.521 155.622 229.142C155.036 227.763 154.734 226.281 154.734 224.783C154.734 223.285 155.036 221.802 155.622 220.423C156.207 219.045 157.065 217.798 158.143 216.757C159.221 215.717 160.498 214.904 161.897 214.367C163.296 213.83 164.789 213.58 166.287 213.632H222.194Z" fill="#F2F2F2"/>
<path d="M223.567 235.762C223.567 235.989 223.477 236.207 223.316 236.368C223.155 236.529 222.937 236.62 222.709 236.62H165.291C163.747 236.62 162.218 236.316 160.791 235.725C159.365 235.135 158.069 234.269 156.977 233.178C155.885 232.087 155.019 230.791 154.428 229.365C153.837 227.94 153.533 226.412 153.533 224.869C153.533 223.325 153.837 221.797 154.428 220.372C155.019 218.946 155.885 217.65 156.977 216.559C158.069 215.468 159.365 214.602 160.791 214.012C162.218 213.421 163.747 213.117 165.291 213.117H222.709C222.937 213.117 223.155 213.208 223.316 213.369C223.477 213.53 223.567 213.748 223.567 213.975C223.567 214.203 223.477 214.421 223.316 214.582C223.155 214.743 222.937 214.833 222.709 214.833H165.291C162.629 214.835 160.078 215.894 158.196 217.775C156.315 219.657 155.258 222.209 155.258 224.869C155.258 227.529 156.315 230.08 158.196 231.962C160.078 233.843 162.629 234.902 165.291 234.904H222.709C222.937 234.904 223.155 234.995 223.316 235.155C223.477 235.316 223.567 235.534 223.567 235.762Z" fill="#3F3D56"/>
<path d="M222.194 218.779H162.115C162.093 218.779 162.07 218.774 162.049 218.766C162.028 218.757 162.009 218.745 161.993 218.729C161.977 218.713 161.965 218.694 161.956 218.673C161.947 218.652 161.943 218.63 161.943 218.607C161.943 218.584 161.947 218.562 161.956 218.541C161.965 218.52 161.977 218.501 161.993 218.485C162.009 218.469 162.028 218.457 162.049 218.448C162.07 218.44 162.093 218.435 162.115 218.435H222.194C222.239 218.436 222.283 218.454 222.315 218.486C222.347 218.518 222.365 218.562 222.365 218.607C222.365 218.652 222.347 218.696 222.315 218.728C222.283 218.76 222.239 218.778 222.194 218.779Z" fill="#CCCCCC"/>
<path d="M222.194 222.896H162.115C162.093 222.896 162.07 222.892 162.049 222.883C162.028 222.874 162.009 222.862 161.993 222.846C161.977 222.83 161.965 222.811 161.956 222.79C161.947 222.769 161.943 222.747 161.943 222.724C161.943 222.702 161.947 222.679 161.956 222.658C161.965 222.637 161.977 222.618 161.993 222.602C162.009 222.587 162.028 222.574 162.049 222.565C162.07 222.557 162.093 222.552 162.115 222.553H222.194C222.239 222.553 222.283 222.571 222.315 222.603C222.347 222.635 222.365 222.679 222.365 222.724C222.365 222.769 222.347 222.813 222.315 222.845C222.283 222.877 222.239 222.895 222.194 222.896Z" fill="#CCCCCC"/>
<path d="M222.194 227.013H162.115C162.093 227.013 162.07 227.009 162.049 227C162.028 226.992 162.009 226.979 161.993 226.963C161.977 226.947 161.965 226.928 161.956 226.907C161.947 226.886 161.943 226.864 161.943 226.841C161.943 226.819 161.947 226.796 161.956 226.775C161.965 226.755 161.977 226.736 161.993 226.72C162.009 226.704 162.028 226.691 162.049 226.683C162.07 226.674 162.093 226.67 162.115 226.67H222.194C222.239 226.67 222.283 226.688 222.315 226.72C222.347 226.753 222.365 226.796 222.365 226.841C222.365 226.887 222.347 226.93 222.315 226.962C222.283 226.994 222.239 227.013 222.194 227.013Z" fill="#CCCCCC"/>
<path d="M222.194 231.13H162.115C162.093 231.13 162.07 231.126 162.049 231.117C162.028 231.109 162.009 231.096 161.993 231.08C161.977 231.064 161.965 231.045 161.956 231.024C161.947 231.004 161.943 230.981 161.943 230.958C161.943 230.936 161.947 230.913 161.956 230.893C161.965 230.872 161.977 230.853 161.993 230.837C162.009 230.821 162.028 230.808 162.049 230.8C162.07 230.791 162.093 230.787 162.115 230.787H222.194C222.239 230.787 222.283 230.805 222.315 230.838C222.347 230.87 222.365 230.913 222.365 230.958C222.365 231.004 222.347 231.047 222.315 231.079C222.283 231.111 222.239 231.13 222.194 231.13Z" fill="#CCCCCC"/>
<path d="M287.231 338.698V319.254C287.231 318.394 286.89 317.57 286.281 316.962C285.673 316.354 284.849 316.013 283.989 316.013H210.215C209.355 316.013 208.531 316.354 207.922 316.962C207.314 317.57 206.973 318.394 206.973 319.254V338.698H287.231Z" fill="#CCCCCC"/>
<path d="M287.231 345.99H206.973V371.106H287.231V345.99Z" fill="#CCCCCC"/>
<path d="M206.973 378.398V397.843C206.973 398.703 207.314 399.527 207.922 400.135C208.531 400.742 209.355 401.084 210.215 401.084H283.989C284.849 401.084 285.673 400.742 286.281 400.135C286.89 399.527 287.231 398.703 287.231 397.843V378.398H206.973Z" fill="#CCCCCC"/>
<path d="M246.697 330.596C248.04 330.596 249.129 329.508 249.129 328.166C249.129 326.823 248.04 325.735 246.697 325.735C245.353 325.735 244.265 326.823 244.265 328.166C244.265 329.508 245.353 330.596 246.697 330.596Z" fill="white"/>
<path d="M246.697 363.004C248.04 363.004 249.129 361.916 249.129 360.574C249.129 359.231 248.04 358.143 246.697 358.143C245.353 358.143 244.265 359.231 244.265 360.574C244.265 361.916 245.353 363.004 246.697 363.004Z" fill="white"/>
<path d="M246.827 394.726C248.17 394.726 249.259 393.638 249.259 392.296C249.259 390.953 248.17 389.865 246.827 389.865C245.484 389.865 244.395 390.953 244.395 392.296C244.395 393.638 245.484 394.726 246.827 394.726Z" fill="white"/>
<path d="M278.132 293.842V316.143H222.225C220.727 316.195 219.234 315.945 217.835 315.409C216.435 314.872 215.159 314.059 214.081 313.018C213.003 311.977 212.145 310.731 211.56 309.352C210.974 307.973 210.672 306.49 210.672 304.993C210.672 303.495 210.974 302.012 211.56 300.633C212.145 299.255 213.003 298.008 214.081 296.967C215.159 295.926 216.435 295.114 217.835 294.577C219.234 294.04 220.727 293.79 222.225 293.842H278.132Z" fill="#F2F2F2"/>
<path d="M279.505 315.972C279.505 316.199 279.415 316.417 279.254 316.578C279.093 316.739 278.875 316.829 278.647 316.829H221.229C219.684 316.831 218.154 316.528 216.726 315.938C215.299 315.348 214.001 314.482 212.908 313.391C211.815 312.3 210.948 311.004 210.357 309.578C209.765 308.151 209.461 306.622 209.461 305.078C209.461 303.534 209.765 302.005 210.357 300.579C210.948 299.153 211.815 297.857 212.908 296.766C214.001 295.674 215.299 294.809 216.726 294.219C218.154 293.629 219.684 293.326 221.229 293.327H278.647C278.875 293.327 279.093 293.418 279.254 293.578C279.415 293.739 279.505 293.957 279.505 294.185C279.505 294.412 279.415 294.631 279.254 294.791C279.093 294.952 278.875 295.043 278.647 295.043H221.229C218.567 295.045 216.016 296.103 214.134 297.985C212.253 299.867 211.196 302.418 211.196 305.078C211.196 307.738 212.253 310.29 214.134 312.171C216.016 314.053 218.567 315.112 221.229 315.114H278.647C278.875 315.114 279.093 315.204 279.254 315.365C279.415 315.526 279.505 315.744 279.505 315.972Z" fill="#3F3D56"/>
<path d="M278.132 298.988H218.053C218.031 298.988 218.008 298.984 217.987 298.976C217.966 298.967 217.947 298.954 217.931 298.938C217.915 298.923 217.902 298.904 217.894 298.883C217.885 298.862 217.881 298.839 217.881 298.817C217.881 298.794 217.885 298.772 217.894 298.751C217.902 298.73 217.915 298.711 217.931 298.695C217.947 298.679 217.966 298.666 217.987 298.658C218.008 298.649 218.031 298.645 218.053 298.645H278.132C278.177 298.646 278.221 298.664 278.253 298.696C278.285 298.728 278.303 298.771 278.303 298.817C278.303 298.862 278.285 298.906 278.253 298.938C278.221 298.97 278.177 298.988 278.132 298.988Z" fill="#CCCCCC"/>
<path d="M278.132 303.106H218.053C218.031 303.106 218.008 303.101 217.987 303.093C217.966 303.084 217.947 303.072 217.931 303.056C217.915 303.04 217.902 303.021 217.894 303C217.885 302.979 217.881 302.957 217.881 302.934C217.881 302.911 217.885 302.889 217.894 302.868C217.902 302.847 217.915 302.828 217.931 302.812C217.947 302.796 217.966 302.784 217.987 302.775C218.008 302.767 218.031 302.762 218.053 302.762H278.132C278.177 302.763 278.221 302.781 278.253 302.813C278.285 302.845 278.303 302.889 278.303 302.934C278.303 302.979 278.285 303.023 278.253 303.055C278.221 303.087 278.177 303.105 278.132 303.106Z" fill="#CCCCCC"/>
<path d="M278.132 307.223H218.053C218.031 307.223 218.008 307.219 217.987 307.21C217.966 307.201 217.947 307.189 217.931 307.173C217.915 307.157 217.902 307.138 217.894 307.117C217.885 307.096 217.881 307.074 217.881 307.051C217.881 307.029 217.885 307.006 217.894 306.985C217.902 306.964 217.915 306.945 217.931 306.929C217.947 306.913 217.966 306.901 217.987 306.892C218.008 306.884 218.031 306.879 218.053 306.88H278.132C278.177 306.88 278.221 306.898 278.253 306.93C278.285 306.962 278.303 307.006 278.303 307.051C278.303 307.096 278.285 307.14 278.253 307.172C278.221 307.204 278.177 307.222 278.132 307.223Z" fill="#CCCCCC"/>
<path d="M278.132 311.34H218.053C218.031 311.34 218.008 311.336 217.987 311.327C217.966 311.319 217.947 311.306 217.931 311.29C217.915 311.274 217.902 311.255 217.894 311.234C217.885 311.213 217.881 311.191 217.881 311.168C217.881 311.146 217.885 311.123 217.894 311.102C217.902 311.081 217.915 311.062 217.931 311.047C217.947 311.031 217.966 311.018 217.987 311.009C218.008 311.001 218.031 310.997 218.053 310.997H278.132C278.177 310.997 278.221 311.015 278.253 311.047C278.285 311.08 278.303 311.123 278.303 311.168C278.303 311.214 278.285 311.257 278.253 311.289C278.221 311.321 278.177 311.339 278.132 311.34Z" fill="#CCCCCC"/>
<path d="M202.763 148.284V6.09387C202.765 4.47824 203.408 2.92931 204.551 1.78689C205.694 0.644465 207.244 0.00183773 208.86 0H321.327C322.943 0.00184843 324.493 0.64448 325.636 1.7869C326.78 2.92932 327.423 4.47824 327.424 6.09387V148.284C327.423 149.9 326.78 151.448 325.636 152.591C324.493 153.733 322.943 154.376 321.327 154.378H208.86C207.244 154.376 205.694 153.733 204.551 152.591C203.408 151.448 202.765 149.9 202.763 148.284ZM208.86 1.35419C207.603 1.3556 206.398 1.85541 205.509 2.74397C204.619 3.63252 204.119 4.83726 204.118 6.09387V148.284C204.119 149.541 204.619 150.745 205.509 151.634C206.398 152.522 207.603 153.022 208.86 153.024H321.327C322.584 153.022 323.79 152.522 324.679 151.634C325.568 150.745 326.068 149.541 326.069 148.284V6.09387C326.068 4.83726 325.568 3.63252 324.679 2.74397C323.79 1.85541 322.584 1.3556 321.327 1.35419H208.86Z" fill="#E6E6E6"/>
<path d="M271.4 65.3003V36.1041C271.401 35.2963 271.723 34.5218 272.294 33.9506C272.866 33.3794 273.641 33.0581 274.449 33.0572H299.205C300.014 33.0581 300.789 33.3794 301.36 33.9506C301.932 34.5218 302.253 35.2963 302.254 36.1041V65.3003C302.253 66.1081 301.932 66.8825 301.36 67.4538C300.789 68.025 300.014 68.3463 299.205 68.3472H274.449C273.641 68.3463 272.866 68.025 272.294 67.4538C271.723 66.8825 271.401 66.1081 271.4 65.3003Z" fill="#6C63FF"/>
<path d="M223.297 78.8421V49.6461C223.298 48.8383 223.62 48.0638 224.191 47.4926C224.763 46.9214 225.538 46.6001 226.346 46.5992H251.102C251.911 46.6001 252.685 46.9214 253.257 47.4926C253.829 48.0638 254.15 48.8383 254.151 49.6461V78.8422C254.15 79.65 253.829 80.4245 253.257 80.9957C252.685 81.5669 251.911 81.8882 251.102 81.8891H226.346C225.538 81.8882 224.763 81.5669 224.191 80.9957C223.62 80.4245 223.298 79.65 223.297 78.8421Z" fill="#CCCCCC"/>
<path d="M261.915 120.145V90.9489C261.916 90.1411 262.238 89.3666 262.809 88.7953C263.381 88.2241 264.156 87.9028 264.964 87.9019H289.72C290.529 87.9028 291.303 88.2241 291.875 88.7953C292.447 89.3666 292.768 90.1411 292.769 90.9489V120.145C292.768 120.953 292.447 121.727 291.875 122.299C291.303 122.87 290.529 123.191 289.72 123.192H264.964C264.156 123.191 263.381 122.87 262.809 122.299C262.238 121.727 261.916 120.953 261.915 120.145Z" fill="#FF6584"/>
<path d="M409.857 253.627H384.385C384.143 253.627 383.904 253.683 383.688 253.79L377.259 257.006C377.047 257.096 376.867 257.246 376.74 257.438C376.613 257.629 376.545 257.854 376.545 258.084C376.545 258.313 376.613 258.538 376.74 258.73C376.867 258.921 377.047 259.071 377.259 259.161L383.688 262.378C383.904 262.484 384.143 262.54 384.385 262.54H409.857C410.208 262.56 410.553 262.441 410.817 262.209C411.081 261.977 411.243 261.651 411.267 261.3V254.867C411.243 254.517 411.081 254.19 410.817 253.958C410.553 253.726 410.208 253.607 409.857 253.627Z" fill="#3F3D56"/>
<path d="M411.267 254.867V261.3C411.243 261.651 411.081 261.977 410.817 262.209C410.553 262.441 410.208 262.56 409.857 262.54H404.782V253.627H409.857C410.208 253.607 410.553 253.726 410.817 253.958C411.081 254.19 411.243 254.517 411.267 254.867Z" fill="#6C63FF"/>
<path d="M409.665 205.501C410.819 205.004 412.065 204.755 413.321 204.773C414.578 204.79 415.816 205.072 416.956 205.601C418.096 206.13 419.111 206.894 419.935 207.842C420.759 208.79 421.373 209.902 421.737 211.104C421.85 211.485 421.937 211.873 421.996 212.266L457.616 229.919L465.86 224.459L476.117 236.26L463.53 246.477C462.016 247.696 460.15 248.395 458.207 248.469C456.265 248.544 454.35 247.991 452.747 246.892L416.607 221.915C416.338 222.029 416.063 222.129 415.784 222.215C414.581 222.579 413.315 222.684 412.068 222.525C410.822 222.365 409.623 221.944 408.55 221.289C407.478 220.634 406.556 219.761 405.845 218.725C405.135 217.689 404.651 216.515 404.426 215.279C404.359 214.921 404.315 214.558 404.294 214.194C404.193 212.37 404.655 210.56 405.615 209.006C406.575 207.451 407.988 206.229 409.665 205.501Z" fill="#FFB8B8"/>
<path d="M483.855 314.189H444.934C444.934 315.307 404.821 316.214 404.821 316.214C404.191 316.688 403.618 317.232 403.111 317.835C401.587 319.651 400.754 321.946 400.759 324.316V325.937C400.76 328.622 401.828 331.198 403.728 333.097C405.629 334.996 408.206 336.063 410.893 336.064H483.855C486.542 336.062 489.118 334.994 491.018 333.095C492.918 331.196 493.987 328.622 493.989 325.937V324.316C493.985 321.631 492.916 319.058 491.017 317.159C489.117 315.261 486.542 314.192 483.855 314.189Z" fill="#3F3D56"/>
<path d="M441.518 403.719H452.057V335.662H441.518V403.719Z" fill="#3F3D56"/>
<path d="M411.522 403.349C411.522 404.487 427.492 403.789 447.193 403.789C466.893 403.789 482.863 404.487 482.863 403.349C482.863 402.21 466.893 393.186 447.193 393.186C427.492 393.186 411.522 402.211 411.522 403.349Z" fill="#3F3D56"/>
<path d="M421.036 395.372L411.098 395.371L406.369 369.609L421.038 369.61L421.036 395.372Z" fill="#FFB8B8"/>
<path d="M423.571 405L391.524 404.999V404.594C391.524 402.957 391.847 401.336 392.473 399.823C393.1 398.311 394.019 396.936 395.177 395.779C396.336 394.621 397.711 393.703 399.224 393.077C400.738 392.45 402.36 392.128 403.998 392.128H403.998L423.572 392.129L423.571 405Z" fill="#2F2E41"/>
<path d="M406.171 379.396L386.357 334.991C384.703 331.249 384.52 327.02 385.845 323.149C387.169 319.278 389.905 316.047 393.506 314.101L436.484 291.069L456.095 289.402L474.186 287.758L474.316 287.979C474.483 288.261 478.373 294.975 475.743 302.337C473.749 307.921 468.562 312.283 460.325 315.302C441.1 322.347 418.891 328.368 410.235 330.629C409.853 330.727 409.495 330.905 409.186 331.15C408.877 331.396 408.624 331.704 408.443 332.055C408.261 332.402 408.153 332.782 408.126 333.172C408.098 333.562 408.152 333.954 408.283 334.323L426.692 375.655C426.884 376.179 426.953 376.74 426.894 377.295C426.835 377.851 426.649 378.385 426.35 378.857C426.052 379.329 425.649 379.726 425.173 380.018C424.697 380.309 424.16 380.488 423.603 380.54L409.849 381.54C409.732 381.552 409.616 381.557 409.5 381.557C408.795 381.557 408.106 381.353 407.515 380.969C406.925 380.586 406.458 380.039 406.171 379.396Z" fill="#2F2E41"/>
<path d="M425.9 395.372L415.962 395.371L411.233 369.609L425.902 369.61L425.9 395.372Z" fill="#FFB8B8"/>
<path d="M428.435 405L396.388 404.999V404.594C396.388 402.957 396.711 401.336 397.338 399.823C397.964 398.311 398.883 396.936 400.042 395.779C401.2 394.621 402.575 393.703 404.088 393.077C405.602 392.45 407.224 392.128 408.862 392.128H408.863L428.436 392.129L428.435 405Z" fill="#2F2E41"/>
<path d="M411.846 381.827L392.032 337.422C390.377 333.679 390.195 329.451 391.519 325.58C392.844 321.708 395.58 318.478 399.181 316.531L442.159 293.499L461.77 291.832L479.861 290.189L479.991 290.41C480.158 290.691 484.047 297.405 481.418 304.768C479.424 310.352 474.236 314.714 466 317.732C446.775 324.777 424.566 330.799 415.91 333.06C415.527 333.158 415.17 333.335 414.861 333.581C414.552 333.827 414.299 334.135 414.117 334.486C413.936 334.832 413.828 335.212 413.8 335.603C413.773 335.993 413.827 336.385 413.958 336.753L432.366 378.085C432.559 378.609 432.628 379.171 432.569 379.726C432.51 380.281 432.324 380.815 432.025 381.287C431.727 381.759 431.324 382.156 430.848 382.448C430.371 382.74 429.834 382.919 429.278 382.97L415.523 383.971C415.407 383.982 415.29 383.988 415.175 383.988C414.47 383.987 413.781 383.783 413.19 383.4C412.599 383.016 412.132 382.47 411.846 381.827Z" fill="#2F2E41"/>
<path d="M401.97 246.175C393.644 235.106 387.062 222.83 382.452 209.771C382.185 208.99 382.204 208.139 382.506 207.371C382.807 206.602 383.372 205.966 384.099 205.575L412.591 190.317C413.052 190.068 413.564 189.928 414.087 189.907C414.611 189.886 415.132 189.984 415.612 190.195C416.1 190.407 416.534 190.728 416.879 191.132C417.225 191.537 417.474 192.016 417.607 192.531C420.923 205.115 427.157 216.742 435.803 226.471C436.159 226.867 436.42 227.339 436.566 227.851C436.712 228.363 436.739 228.902 436.645 229.426C436.555 229.941 436.348 230.43 436.041 230.853C435.733 231.277 435.333 231.625 434.87 231.871L406.378 247.128C405.649 247.517 404.806 247.634 403.999 247.459C403.192 247.285 402.473 246.829 401.97 246.175Z" fill="#CCCCCC"/>
<path d="M403.914 244.714C404.067 244.906 404.283 245.037 404.523 245.087C404.763 245.136 405.013 245.101 405.229 244.986L433.721 229.728C433.86 229.656 433.98 229.553 434.071 229.427C434.163 229.301 434.224 229.155 434.25 229.001C434.28 228.839 434.272 228.672 434.226 228.514C434.18 228.355 434.099 228.209 433.987 228.088C425.085 218.072 418.668 206.102 415.254 193.148C415.215 192.988 415.139 192.839 415.032 192.713C414.926 192.587 414.791 192.488 414.64 192.423C414.497 192.359 414.342 192.329 414.185 192.335C414.029 192.342 413.877 192.384 413.74 192.46L385.248 207.717C385.032 207.834 384.864 208.022 384.772 208.249C384.68 208.477 384.671 208.729 384.746 208.962C389.273 221.787 395.737 233.844 403.914 244.714Z" fill="white"/>
<path d="M496.625 242.105L474.311 250.579L468.863 235.455C468.14 233.447 468.15 231.248 468.892 229.246C469.634 227.245 471.06 225.57 472.918 224.518C474.798 223.453 476.996 223.096 479.117 223.509C481.237 223.923 483.14 225.081 484.481 226.774L496.625 242.105Z" fill="#6C63FF"/>
<path d="M439.868 302.027C439.399 301.695 439.005 301.267 438.714 300.771C438.423 300.275 438.241 299.723 438.179 299.152C435.321 272.488 437.312 251.622 444.264 235.361C445.489 232.556 447.333 230.065 449.66 228.075C451.986 226.086 454.733 224.649 457.695 223.872L475.732 222.962L475.826 223.008C479.896 225 483.216 228.25 485.292 232.277C487.368 236.303 488.091 240.891 487.353 245.36C481.552 260.643 476.694 276.555 480.399 289.391C480.554 289.928 480.599 290.49 480.532 291.045C480.465 291.599 480.286 292.134 480.006 292.618C479.736 293.086 479.372 293.493 478.937 293.815C478.503 294.137 478.007 294.366 477.481 294.489L443.125 302.657C442.568 302.789 441.99 302.801 441.429 302.693C440.867 302.584 440.335 302.357 439.868 302.027Z" fill="#6C63FF"/>
<path d="M469.713 216.23C480.71 216.23 489.624 207.32 489.624 196.33C489.624 185.34 480.71 176.431 469.713 176.431C458.716 176.431 449.801 185.34 449.801 196.33C449.801 207.32 458.716 216.23 469.713 216.23Z" fill="#FFB8B8"/>
<path d="M414.462 212.091L398.944 218.937C398.354 219.196 397.685 219.211 397.083 218.979C396.482 218.746 395.998 218.284 395.737 217.695L395.353 216.826C395.093 216.236 395.078 215.567 395.311 214.966C395.544 214.366 396.006 213.882 396.596 213.621L412.114 206.775C412.704 206.515 413.373 206.5 413.974 206.733C414.575 206.966 415.06 207.428 415.321 208.017L415.705 208.886C415.964 209.476 415.979 210.144 415.746 210.745C415.513 211.346 415.051 211.83 414.462 212.091Z" fill="#CCCCCC"/>
<path d="M420.137 222.624L404.619 229.469C404.028 229.729 403.359 229.744 402.758 229.511C402.157 229.278 401.673 228.817 401.412 228.227L401.028 227.358C400.768 226.769 400.753 226.1 400.986 225.499C401.219 224.898 401.681 224.414 402.27 224.153L417.788 217.308C418.379 217.048 419.048 217.033 419.649 217.266C420.25 217.499 420.735 217.96 420.996 218.55L421.379 219.418C421.639 220.008 421.654 220.677 421.421 221.278C421.188 221.879 420.726 222.363 420.137 222.624Z" fill="#CCCCCC"/>
<path d="M432.104 263.763L397.508 236.487C397.232 236.584 396.952 236.667 396.668 236.735C395.447 237.02 394.179 237.046 392.948 236.81C391.716 236.574 390.548 236.081 389.519 235.364C388.484 234.647 387.614 233.717 386.967 232.637C386.32 231.556 385.912 230.35 385.769 229.099C385.537 227.099 385.988 225.079 387.049 223.368C388.11 221.656 389.718 220.353 391.613 219.67C392.796 219.246 394.055 219.076 395.308 219.172C396.561 219.268 397.779 219.628 398.883 220.227C399.988 220.827 400.953 221.653 401.715 222.651C402.478 223.649 403.021 224.797 403.308 226.019C403.398 226.407 403.46 226.8 403.494 227.196L437.933 247.052L446.504 242.121L455.998 254.542L442.691 264.021C441.133 265.122 439.262 265.691 437.355 265.645C435.448 265.598 433.606 264.938 432.104 263.763Z" fill="#FFB8B8"/>
<path d="M460.219 258.411L440.48 244.996L449.757 231.865C450.989 230.122 452.797 228.87 454.864 228.33C456.93 227.79 459.121 227.998 461.049 228.916C462.999 229.845 464.552 231.441 465.429 233.414C466.305 235.388 466.446 237.609 465.827 239.678L460.219 258.411Z" fill="#6C63FF"/>
<path d="M462.413 193.366C457.295 196.867 450.575 200.465 445.348 196.737C441.916 194.29 440.835 189.757 442.227 185.78C444.729 178.627 451.606 175.478 458.182 173.064C466.73 169.926 476.038 167.429 484.862 169.677C493.687 171.924 501.486 180.463 499.893 189.424C498.612 196.63 491.81 202.626 492.776 209.881C493.748 217.182 501.964 221.026 509.218 222.331C516.472 223.636 524.589 224.055 529.802 229.262C536.452 235.905 534.792 247.778 528.534 254.791C522.277 261.805 512.834 264.984 503.683 267.145C491.56 270.008 478.447 271.513 466.933 266.761C455.419 262.009 446.458 249.217 449.794 237.221C451.203 232.155 454.522 227.872 457.729 223.704C460.937 219.535 464.185 215.175 465.409 210.061C466.428 205.798 465.673 200.85 462.845 197.653C462.331 197.093 462.007 196.385 461.921 195.63C461.834 194.875 461.989 194.112 462.363 193.451L462.413 193.366Z" fill="#2F2E41"/>
<path d="M88.4242 290.05C83.2934 291.853 77.7846 292.304 72.4285 291.361C67.0724 290.418 62.0496 288.113 57.8439 284.667C47.133 275.682 43.7748 260.88 41.0424 247.175C38.3484 233.662 35.6544 220.149 32.9604 206.636L49.8809 218.28C62.0491 226.653 74.4915 235.295 82.9167 247.423C91.342 259.552 95.0196 276.109 88.2502 289.232" fill="#E6E6E6"/>
<path d="M86.9778 339.131C88.6904 326.664 90.4513 314.037 89.2501 301.436C88.1832 290.246 84.767 279.316 77.8121 270.354C74.1205 265.606 69.6284 261.538 64.538 258.332C63.2105 257.495 61.9888 259.598 63.3104 260.431C72.1184 265.995 78.9311 274.209 82.7661 283.892C87.0019 294.659 87.6821 306.396 86.9522 317.834C86.5108 324.751 85.5753 331.622 84.6325 338.485C84.5582 338.795 84.6046 339.122 84.7622 339.4C84.9199 339.677 85.1771 339.885 85.4819 339.98C85.7928 340.064 86.1242 340.021 86.4043 339.862C86.6843 339.704 86.8904 339.441 86.9778 339.131Z" fill="#F2F2F2"/>
<path d="M70.4825 317.07C68.282 320.413 65.2573 323.133 61.6997 324.968C58.1421 326.803 54.1717 327.691 50.1708 327.547C39.8886 327.06 31.3166 319.888 23.6002 313.079L0.776489 292.94L15.882 292.217C26.745 291.697 37.8882 291.213 48.2348 294.561C58.5814 297.909 68.1236 305.966 70.0156 316.669" fill="#E6E6E6"/>
<path d="M91.8176 346.298C83.5747 331.721 74.0137 315.521 56.9297 310.343C52.1795 308.909 47.1986 308.395 42.2552 308.829C40.6972 308.963 41.0863 311.363 42.6415 311.229C50.9276 310.542 59.1977 312.729 66.0595 317.421C72.6626 321.913 77.8037 328.158 82.1552 334.78C84.8205 338.836 87.208 343.065 89.596 347.287C90.3591 348.637 92.5897 347.663 91.8176 346.298Z" fill="#F2F2F2"/>
<path d="M105.025 361.64C104.747 358.424 103.592 355.346 101.685 352.741C99.7774 350.135 97.1914 348.103 94.2082 346.865V338.438H80.0658V347.13C77.2295 348.429 74.7886 350.457 72.9918 353.005C71.1951 355.554 70.1068 358.534 69.8379 361.64L66.5125 400.274H108.351L105.025 361.64Z" fill="#F2F2F2"/>
</g>
<defs>
<clipPath id="clip0_1_27">
<rect width="561" height="405" fill="white"/>
</clipPath>
</defs>
</svg>
